PathFileType	4	(X/Y/Z)	C:\Users\wzy\Desktop\s001_20220513_walk_1_markers.trc
DataRate	CameraRate	NumFrames	NumMarkers	Units	OrigDataRate	OrigDataStartFrame	OrigNumFrames
250.000000	250.000000	4	99	mm	250.000000	134	1078
Frame#	Time	QTMMod_head_top			QTMMod_head_l_ant			QTMMod_head_r_ant			QTMMod_head_r_post			QTMMod_head_l_post			QTMMod_trunk_l_acro			QTMMod_trunk_r_acro			QTMMod_trunk_manu			QTMMod_trunk_xyph			QTMMod_trunk_abdl			QTMMod_trunk_c7			QTMMod_trunk_t8			QTMMod_trunk_t12			QTMMod_l_sho_ant			QTMMod_l_sho_post			QTMMod_l_bicep			QTMMod_l_tricep			QTMMod_l_elb_lat			QTMMod_l_elb_med			QTMMod_l_farm_ant			QTMMod_l_farm_post			QTMMod_l_wri_lat			QTMMod_l_wri_med			QTMMod_l_hand			QTMMod_l_thmb			QTMMod_r_sho_ant			QTMMod_r_sho_post			QTMMod_r_bicep			QTMMod_r_tricep			QTMMod_r_elb_lat			QTMMod_r_elb_med			QTMMod_r_farm_ant			QTMMod_r_farm_post			QTMMod_r_wri_lat			QTMMod_r_wri_med			QTMMod_r_hand			QTMMod_r_thmb			QTMMod_pelvis_l_asis			QTMMod_pelvis_r_asis			QTMMod_pelvis_r			QTMMod_pelvis_r_ilcr			QTMMod_pelvis_r_psis			QTMMod_pelvis_sac			QTMMod_pelvis_l_psis			QTMMod_pelvis_l_ilcr			QTMMod_pelvis_l			QTMMod_l_hip_grtr			QTMMod_l_thigh_antprox			QTMMod_l_thigh_postprox			QTMMod_l_thigh_postdist			QTMMod_l_thigh_antdist			QTMMod_l_thigh_ant			QTMMod_l_thigh_med			QTMMod_l_thigh_pos			QTMMod_l_knee_lat			QTMMod_l_knee_med			QTMMod_l_shank_antprox			QTMMod_l_shank_postprox			QTMMod_l_shank_postdist			QTMMod_l_shank_antdist			QTMMod_l_shank_med			QTMMod_l_ank_lat			QTMMod_l_ank_med			QTMMod_l_foot_heel			QTMMod_l_foot_lat			QTMMod_l_foot_m5			QTMMod_l_foot_m2			QTMMod_l_foot_toe			QTMMod_l_foot_m1			QTMMod_l_foot_med			QTMMod_l_foot_navi			QTMMod_r_hip_grtr			QTMMod_r_thigh_antprox			QTMMod_r_thigh_postprox			QTMMod_r_thigh_postdist			QTMMod_r_thigh_antdist			QTMMod_r_thigh_ant			QTMMod_r_thigh_med			QTMMod_r_thigh_pos			QTMMod_r_knee_lat			QTMMod_r_knee_med			QTMMod_r_shank_antprox			QTMMod_r_shank_postprox			QTMMod_r_shank_postdist			QTMMod_r_shank_antdist			QTMMod_r_shank_med			QTMMod_r_ank_lat			QTMMod_r_ank_med			QTMMod_r_foot_heel			QTMMod_r_foot_lat			QTMMod_r_foot_m5			QTMMod_r_foot_m2			QTMMod_r_foot_toe			QTMMod_r_foot_m1			QTMMod_r_foot_med			QTMMod_r_foot_navi			QTMMod_head_l			QTMMod_head_r			QTMMod_head_front			
		X1	Y1	Z1	X2	Y2	Z2	X3	Y3	Z3	X4	Y4	Z4	X5	Y5	Z5	X6	Y6	Z6	X7	Y7	Z7	X8	Y8	Z8	X9	Y9	Z9	X10	Y10	Z10	X11	Y11	Z11	X12	Y12	Z12	X13	Y13	Z13	X14	Y14	Z14	X15	Y15	Z15	X16	Y16	Z16	X17	Y17	Z17	X18	Y18	Z18	X19	Y19	Z19	X20	Y20	Z20	X21	Y21	Z21	X22	Y22	Z22	X23	Y23	Z23	X24	Y24	Z24	X25	Y25	Z25	X26	Y26	Z26	X27	Y27	Z27	X28	Y28	Z28	X29	Y29	Z29	X30	Y30	Z30	X31	Y31	Z31	X32	Y32	Z32	X33	Y33	Z33	X34	Y34	Z34	X35	Y35	Z35	X36	Y36	Z36	X37	Y37	Z37	X38	Y38	Z38	X39	Y39	Z39	X40	Y40	Z40	X41	Y41	Z41	X42	Y42	Z42	X43	Y43	Z43	X44	Y44	Z44	X45	Y45	Z45	X46	Y46	Z46	X47	Y47	Z47	X48	Y48	Z48	X49	Y49	Z49	X50	Y50	Z50	X51	Y51	Z51	X52	Y52	Z52	X53	Y53	Z53	X54	Y54	Z54	X55	Y55	Z55	X56	Y56	Z56	X57	Y57	Z57	X58	Y58	Z58	X59	Y59	Z59	X60	Y60	Z60	X61	Y61	Z61	X62	Y62	Z62	X63	Y63	Z63	X64	Y64	Z64	X65	Y65	Z65	X66	Y66	Z66	X67	Y67	Z67	X68	Y68	Z68	X69	Y69	Z69	X70	Y70	Z70	X71	Y71	Z71	X72	Y72	Z72	X73	Y73	Z73	X74	Y74	Z74	X75	Y75	Z75	X76	Y76	Z76	X77	Y77	Z77	X78	Y78	Z78	X79	Y79	Z79	X80	Y80	Z80	X81	Y81	Z81	X82	Y82	Z82	X83	Y83	Z83	X84	Y84	Z84	X85	Y85	Z85	X86	Y86	Z86	X87	Y87	Z87	X88	Y88	Z88	X89	Y89	Z89	X90	Y90	Z90	X91	Y91	Z91	X92	Y92	Z92	X93	Y93	Z93	X94	Y94	Z94	X95	Y95	Z95	X96	Y96	Z96	X97	Y97	Z97	X98	Y98	Z98	X99	Y99	Z99	

135	0.536	-1224.198852539062	1676.172973632812	-274.5846862792968	-1161.864868164062	1569.492919921875	-346.8320922851562	-1155.425659179688	1603.121215820312	-184.1926727294921	-1252.338134765625	1580.21875	-180.9539794921874	-1275.975463867188	1543.68212890625	-328.9894104003906	-1205.233032226562	1407.581787109375	-397.8853149414062	-1217.561889648438	1384.274169921875	-83.84168243408196	-1167.328125	1349.288208007812	-242.2303009033202	-1124.804321289062	1132.748168945312	-238.3234405517578	-1094.552856445312	1006.992736816406	-247.296646118164	-1277.14697265625	1435.3671875	-242.7926330566405	-1355.529418945312	1233.8701171875	-260.9432983398437	-1350.048217773438	1137.767456054688	-254.417999267578	-1168.811401367188	1348.030883789062	-386.7197875976562	-1278.705932617188	1382.038696289062	-410.0335083007812	-1168.562377929688	1205.83642578125	-440.8674621582031	-1276.380859375	1208.958740234375	-458.0905761718749	-1183.798828125	1095.02978515625	-509.3381652832031	-1239.895141601562	1065.827026367188	-436.5618286132812	-1171.351684570312	982.6307983398436	-445.9901123046874	-1162.911376953125	996.6351928710936	-525.7872314453124	-1088.913208007812	873.8247680664061	-467.9054870605468	-1118.66796875	868.1122436523436	-530.1508178710936	-1071.3984375	825.3299560546874	-521.5733032226561	-1063.703857421875	831.8500976562499	-465.3773803710937	-1168.9375	1328.524780273438	-99.19113922119134	-1295.889770507812	1354.391845703125	-86.19496154785148	-1202.674072265625	1182.128662109375	-37.2940368652343	-1312.689331054688	1191.46044921875	-44.35163497924797	-1252.661743164062	1066.683959960938	33.66094970703133	-1291.7490234375	1049.29931640625	-60.07458877563469	-1246.022094726562	974.4757690429686	-25.882677078247	-1282.843383789062	998.1219482421874	48.47487640380867	-1233.209594726562	825.4547729492186	25.26572990417488	-1292.483276367188	831.3164062499999	64.53997802734384	-1263.567504882812	772.3196411132811	77.84762573242195	-1227.247192382812	771.0394287109374	39.42890548706063	-1145.2353515625	997.7226562499999	-361.8613891601562	-1153.0380859375	996.2396240234374	-129.8190155029296	-1249.812622070312	1014.70556640625	-74.43257141113274	-1256.080200195312	1035.547729492188	-76.10256195068352	-1351.735595703125	1025.242431640625	-188.474136352539	-1355.3076171875	1024.066162109375	-242.2301940917968	-1348.3271484375	1029.4033203125	-291.6636962890624	-1231.360229492188	1047.982788085938	-412.2704467773437	-1220.772827148438	998.7016601562499	-416.6450805664062	-1232.8984375	956.1527709960936	-434.3825988769531	-1155.8740234375	655.8175659179686	-389.4993286132812	-1221.193359375	645.3994750976561	-387.5210571289062	-1207.63330078125	551.6565551757811	-359.9963073730468	-1136.926513671875	566.1878662109374	-354.7316894531249	-1109.919311523438	561.2210693359374	-286.8144226074218	-1147.207153320312	632.0036010742186	-228.0863494873046	-1275.509765625	602.1365966796874	-309.2789306640624	-1153.396240234375	497.1451721191406	-327.9787902832031	-1169.632080078125	499.4150390624999	-224.6340789794921	-1172.1708984375	351.0454406738281	-339.0498046874999	-1242.986206054688	363.9130859374999	-357.2556152343749	-1257.347045898438	292.6514892578124	-344.7744445800781	-1186.126586914062	277.9106445312499	-333.7154846191406	-1192.535400390625	317.1676330566406	-222.0733184814452	-1231.826904296875	88.32154083251946	-302.3791503906249	-1258.19189453125	86.50022125244134	-220.1725006103515	-1300.447021484375	65.78798675537101	-268.6694641113281	-1182.827026367188	50.6802902221679	-301.7002868652343	-1112.806762695312	40.60763168334954	-303.5008239746093	-1081.755249023438	56.03533935546869	-236.9949188232421	-1038.930541992188	50.51208496093744	-251.3848419189453	-1121.573486328125	48.84893417358391	-204.5967559814453	-1176.733764648438	46.77164077758782	-201.0582275390624	-1172.804809570312	97.75601196289055	-254.5602111816405	-1211.966430664062	971.2593994140624	-63.24195098876946	-1067.521118164062	708.9592285156249	-53.98714828491205	-1140.095336914062	685.9165039062499	-39.81022262573235	-1104.716796875	593.2338256835936	-53.9757995605468	-1039.165283203125	615.1872558593749	-65.80435180664057	-996.1543579101562	580.2363281249999	-127.728401184082	-1049.128295898438	672.3410644531249	-191.3156738281249	-1188.736206054688	619.6287841796874	-130.1200256347655	-1048.75439453125	519.5986328124999	-74.89601135253899	-1021.572509765625	511.4714355468749	-175.0431213378906	-1128.422607421875	410.2539062499999	-67.77230072021477	-1175.669189453125	466.6484374999999	-76.49308776855462	-1233.441650390625	416.5863647460937	-82.96936798095696	-1186.197998046875	360.2009887695312	-77.60719299316399	-1129.429077148438	371.7735595703124	-171.2680053710937	-1361.754028320312	226.1868591308593	-131.3226928710937	-1320.37548828125	217.8472137451171	-208.2218322753905	-1403.88037109375	244.209976196289	-189.1917114257812	-1344.623291015625	151.8772430419921	-117.4679946899413	-1319.374633789062	101.9592819213866	-95.66921997070304	-1265.344360351562	89.84988403320305	-152.9225158691405	-1233.747192382812	51.71715927124016	-139.3547210693359	-1284.594604492188	68.41122436523429	-195.7110443115234	-1314.558227539062	141.7027282714843	-203.0663604736327	-1289.116333007812	180.5960235595702	-152.1048736572265	-1218.920166015625	1556.587524414062	-337.9107666015624	-1203.881958007812	1591.670043945312	-182.5733184814452	-1158.645263671875	1586.30712890625	-265.5123901367187	
136	0.54	-1219.599609375	1676.78173828125	-274.2452087402343	-1157.272216796875	1570.092041015625	-346.4800720214843	-1151.078857421875	1603.434692382812	-183.8339080810546	-1248.044311523438	1580.687133789062	-180.7660217285155	-1271.44921875	1544.501831054688	-328.8607788085937	-1201.19091796875	1408.493774414062	-397.8461914062499	-1213.641723632812	1384.828735351562	-83.85915374755852	-1163.236938476562	1349.8740234375	-242.152862548828	-1120.981323242188	1134.28076171875	-238.1780242919921	-1090.53759765625	1007.520141601562	-247.5907592773437	-1273.04248046875	1435.885864257812	-242.8732299804687	-1351.253051757812	1234.367919921875	-261.2688903808593	-1345.790405273438	1138.358764648438	-254.7856903076171	-1164.432495117188	1348.798828125	-386.6980285644531	-1274.42529296875	1382.626220703125	-410.0795288085937	-1163.684326171875	1206.929321289062	-440.7877807617187	-1271.57080078125	1209.510498046875	-458.1509094238281	-1178.407958984375	1095.776123046875	-509.1444091796874	-1234.296508789062	1066.405883789062	-436.3419494628906	-1165.035888671875	983.4509277343749	-445.3940734863281	-1156.953247070312	997.5289306640624	-525.4191894531249	-1082.146850585938	875.3386230468749	-467.1636657714843	-1111.931030273438	869.4456787109374	-529.4862670898436	-1064.26171875	826.9682617187499	-520.5858764648436	-1056.751586914062	833.3980102539061	-464.5775451660156	-1164.90576171875	1329.125854492188	-98.99327087402337	-1291.99462890625	1355.019287109375	-86.52661895751945	-1199.45703125	1182.61279296875	-37.24367141723626	-1309.368408203125	1192.524658203125	-44.58960342407219	-1250.383422851562	1067.609252929688	33.85822296142586	-1288.458740234375	1050.076049804688	-59.99481582641594	-1244.187866210938	975.4180297851561	-25.78667449951164	-1280.869750976562	999.1997680664061	48.61686706542977	-1231.8330078125	826.5689697265624	26.23153686523445	-1290.376586914062	831.8798828124999	64.81930541992196	-1262.679077148438	773.3953857421874	78.54543304443366	-1222.653442382812	772.6995239257811	40.55847930908211	-1141.1201171875	998.0021362304686	-362.3095703124999	-1149.185302734375	997.1693115234374	-130.1113128662109	-1245.344604492188	1015.484924316406	-74.42810058593743	-1251.351684570312	1036.458374023438	-76.4008483886718	-1347.681518554688	1026.0703125	-188.7218627929687	-1351.155151367188	1024.686157226562	-242.2404174804687	-1344.156982421875	1029.947265625	-291.6778564453124	-1227.372802734375	1048.267333984375	-412.3917541503906	-1216.12939453125	998.9951171874999	-416.7187194824218	-1229.030639648438	956.3731079101561	-434.4834594726562	-1153.836303710938	655.5307006835936	-389.4854125976562	-1219.376708984375	645.7507324218749	-387.5363159179687	-1206.400512695312	551.9059448242186	-360.2777709960937	-1135.608642578125	565.9854125976561	-354.9349670410156	-1108.622436523438	560.6738281249999	-287.0383300781249	-1145.3017578125	631.8076171874999	-228.2146453857421	-1273.779663085938	602.9616699218749	-309.2156372070312	-1152.715942382812	497.0360412597656	-328.1441345214843	-1169.255126953125	499.5274353027343	-224.3041839599609	-1171.879150390625	351.0297546386718	-339.2204895019531	-1242.9072265625	364.1803588867187	-357.1523132324218	-1257.20751953125	292.8461914062499	-344.7953186035156	-1186.22412109375	278.0168151855468	-333.7553100585937	-1194.222534179688	317.8071899414062	-223.3175811767577	-1231.11669921875	85.61756896972649	-299.8277587890624	-1258.780517578125	86.40405273437493	-220.4154357910155	-1300.445556640625	65.89736938476554	-268.6515502929687	-1182.768798828125	50.65517044067376	-301.6513671874999	-1112.65185546875	40.49210739135735	-303.3728942871093	-1081.6279296875	55.83744812011712	-236.9985961914062	-1038.961181640625	50.54631423950189	-251.4410095214843	-1121.290405273438	49.35553741455071	-204.6711730957031	-1177.442260742188	47.51791763305657	-200.7849578857421	-1165.24169921875	99.92208099365227	-253.1228027343749	-1207.923706054688	972.2631225585936	-63.5413513183593	-1061.657836914062	711.2678222656249	-54.61756134033197	-1133.569702148438	687.6585693359374	-39.70309066772454	-1097.719116210938	595.1425170898436	-53.83578109741205	-1032.493408203125	617.5776367187499	-66.13963317871088	-989.528564453125	582.8615112304686	-128.1059570312499	-1042.868408203125	673.8218383789061	-191.1539154052734	-1182.443725585938	620.7802124023436	-129.4383392333984	-1041.164306640625	521.6115112304686	-74.8235244750976	-1014.303466796875	513.8622436523436	-175.059341430664	-1119.571411132812	410.8491516113281	-67.90022277832024	-1167.826049804688	466.0386962890624	-75.87929534912102	-1224.5048828125	415.0934753417968	-82.65254211425774	-1176.223510742188	359.6811523437499	-77.58958435058587	-1119.87890625	372.2854919433593	-171.2870330810546	-1349.5302734375	222.4924011230468	-130.904327392578	-1308.430786132812	214.7353363037109	-208.3395843505859	-1394.170166015625	240.2297821044921	-188.1741638183593	-1330.548950195312	148.7015228271484	-116.7332611083984	-1303.91552734375	99.3878860473632	-94.64092254638663	-1250.805908203125	87.6506271362304	-151.6307525634765	-1214.0654296875	52.21158599853509	-137.9452819824218	-1266.654541015625	67.57508850097649	-194.5865173339843	-1299.874389648438	138.6541595458984	-202.3358001708984	-1275.338256835938	178.7033691406249	-151.5264434814452	-1214.360717773438	1557.296997070312	-337.6704406738281	-1199.5615234375	1592.060913085938	-182.2999572753905	-1154.175537109375	1586.763305664062	-265.1569824218749	
137	0.544	-1214.9697265625	1677.291381835938	-273.7918395996093	-1152.740478515625	1570.662963867188	-346.1592712402343	-1146.65283203125	1603.651611328125	-183.5498962402343	-1243.633666992188	1581.08837890625	-180.5619201660155	-1267.042358398438	1545.197509765625	-328.8187866210937	-1196.751586914062	1408.808959960938	-397.7608947753906	-1209.679443359375	1385.33837890625	-83.9487228393554	-1159.008178710938	1350.4287109375	-242.2183990478515	-1116.9306640625	1135.048095703125	-238.2496032714843	-1086.500732421875	1008.052307128906	-247.9898986816406	-1268.87255859375	1436.29833984375	-242.9361419677734	-1346.980834960938	1234.801513671875	-261.6366271972656	-1341.445190429688	1138.69384765625	-255.1478424072265	-1160.11962890625	1349.581176757812	-386.7237243652343	-1270.162109375	1383.171997070312	-410.1757812499999	-1158.7314453125	1207.647827148438	-440.8769531249999	-1266.746704101562	1209.960815429688	-458.1378479003906	-1173.1005859375	1096.540649414062	-508.9473266601562	-1228.871826171875	1066.96484375	-436.2331848144531	-1158.833251953125	984.4373779296874	-445.0181579589843	-1150.968994140625	998.4337158203124	-525.0068359374999	-1075.450073242188	876.6936035156249	-466.4151306152343	-1105.134155273438	870.2695312499999	-528.8948974609374	-1057.214111328125	828.3558959960936	-519.4896240234374	-1049.740356445312	835.0591430664061	-463.6967163085937	-1160.939208984375	1329.746337890625	-98.72341156005852	-1288.0869140625	1355.634643554688	-86.72051239013663	-1196.333984375	1183.160522460938	-36.77192687988274	-1306.4169921875	1194.22998046875	-45.71900558471672	-1248.0556640625	1068.508666992188	34.07992172241219	-1285.878173828125	1051.004150390625	-59.96844100952141	-1241.54638671875	976.4773559570311	-25.07122421264641	-1279.025512695312	1000.344055175781	48.71522140502938	-1230.77880859375	827.5446166992186	26.86779403686531	-1288.66650390625	832.7627563476561	65.02743530273446	-1261.609008789062	774.3491821289061	79.17706298828132	-1221.37353515625	773.5237426757811	41.63420486450203	-1137.001098632812	998.1626586914061	-362.6066589355468	-1144.246826171875	997.1121215820311	-130.4787597656249	-1240.961059570312	1016.483947753906	-74.6332931518554	-1247.026611328125	1037.32275390625	-76.5327072143554	-1343.558959960938	1026.724853515625	-188.7924804687499	-1346.967041015625	1025.110107421875	-242.2530517578124	-1339.971557617188	1030.404174804688	-291.7022705078124	-1223.56689453125	1048.557739257812	-412.4707946777343	-1212.6328125	999.2009277343749	-416.8328247070312	-1223.739013671875	956.4755859374999	-434.3967285156249	-1149.511474609375	653.9861450195311	-388.7181396484374	-1217.0703125	645.7374877929686	-387.8929138183593	-1205.098876953125	552.2459716796874	-360.5261840820312	-1134.3935546875	565.7990112304686	-355.2038879394531	-1107.358154296875	560.2610473632811	-287.2691955566406	-1143.402221679688	631.5668334960936	-228.3804473876953	-1272.020141601562	603.7519531249999	-309.2371520996093	-1152.04296875	496.9550170898437	-328.3830871582031	-1168.180053710938	499.4414062499999	-224.5212097167968	-1171.621826171875	351.0420532226562	-339.4013366699218	-1242.697387695312	364.1993103027343	-357.3832397460937	-1256.818969726562	292.8513793945312	-344.9792785644531	-1186.2607421875	278.3001098632812	-333.9836730957031	-1193.444213867188	317.6978454589843	-223.1518249511718	-1232.0654296875	85.72888183593743	-302.6434326171874	-1258.791625976562	86.46002197265618	-220.7835388183593	-1300.344604492188	66.1214065551757	-268.8273620605468	-1182.768432617188	50.66116714477532	-301.6441955566406	-1112.708618164062	40.39559173583977	-303.5571289062499	-1081.598876953125	55.79519653320306	-237.0257568359374	-1038.949584960938	50.53137207031244	-251.4725189208984	-1121.718505859375	48.81838226318352	-205.1081085205078	-1178.2939453125	48.28613662719719	-200.5588226318359	-1164.744873046875	99.23239898681634	-253.3490600585937	-1203.828125	973.2228393554686	-63.80431747436516	-1055.679565429688	713.4049682617186	-54.83052062988275	-1127.171020507812	689.3272094726561	-39.50682067871087	-1090.682373046875	596.9609985351561	-53.54489898681634	-1025.982788085938	619.9614257812499	-66.36601257324213	-983.048828125	585.2986450195311	-128.4056091308593	-1037.55029296875	675.6951293945311	-192.1744384765624	-1176.148803710938	621.7999267578124	-128.8921508789062	-1034.34130859375	523.6817016601561	-75.33489227294916	-1007.155395507812	516.1025390624999	-175.2867584228515	-1110.614501953125	411.2764892578124	-67.87087249755852	-1160.44775390625	465.4169921874999	-75.36143493652337	-1215.508666992188	413.4760131835937	-82.35679626464837	-1166.00390625	358.8759765624999	-77.5785827636718	-1110.289306640625	372.9008178710937	-171.5100402832031	-1335.830444335938	218.5590515136718	-130.0983276367187	-1295.871337890625	211.4460449218749	-207.9818572998046	-1382.717529296875	236.1094970703124	-188.9533386230468	-1316.3330078125	145.393096923828	-116.1980056762694	-1288.309326171875	96.77079010009757	-93.56114959716788	-1234.76708984375	86.54203033447259	-150.2441101074218	-1197.033569335938	51.58790969848626	-136.5254364013671	-1252.446655273438	65.3129577636718	-193.2475280761718	-1285.35498046875	135.5661468505859	-201.5090332031249	-1261.48583984375	176.8321533203124	-151.0042266845702	-1209.891479492188	1557.930297851562	-337.4890441894531	-1195.143310546875	1592.369995117188	-182.0559082031249	-1149.696655273438	1587.157348632812	-264.8545837402343	
138	0.548	-1210.300903320312	1677.81005859375	-273.4501647949218	-1148.202514648438	1571.252319335938	-345.7708435058593	-1142.282836914062	1603.898803710938	-183.1796417236328	-1239.3349609375	1581.478637695312	-180.4063415527343	-1262.542236328125	1545.930419921875	-328.7186584472656	-1192.634521484375	1409.421630859375	-397.6642761230468	-1205.709594726562	1385.79443359375	-83.99790954589837	-1154.94482421875	1350.93798828125	-242.181411743164	-1112.978393554688	1135.735717773438	-238.2247009277343	-1082.415405273438	1008.422119140625	-248.2964477539062	-1264.75830078125	1436.7080078125	-243.0251464843749	-1342.7314453125	1235.237548828125	-261.8132019042968	-1337.182861328125	1139.229614257812	-255.3712463378905	-1155.793823242188	1350.28369140625	-386.7080078124999	-1265.87646484375	1383.662719726562	-410.2066345214843	-1153.939575195312	1208.480346679688	-440.7557678222656	-1261.886962890625	1210.362548828125	-458.3022766113281	-1167.758056640625	1097.196166992188	-508.7260131835937	-1223.102416992188	1067.5009765625	-435.9999389648437	-1152.763671875	985.4104003906249	-444.4049072265624	-1145.031860351562	999.2177734374999	-524.5668334960936	-1068.800170898438	878.1098022460936	-465.5935058593749	-1098.347534179688	871.3389892578124	-528.0811767578124	-1050.110107421875	829.8002319335936	-518.7261962890624	-1042.258422851562	836.8413696289061	-462.6629638671874	-1157.044311523438	1330.281005859375	-98.45217132568352	-1284.142456054688	1356.143676757812	-86.9348831176757	-1193.35595703125	1184.019653320312	-36.53843688964837	-1303.173828125	1195.029418945312	-46.06541061401359	-1245.695434570312	1069.337524414062	34.31002426147469	-1283.786499023438	1052.142211914062	-60.04418945312492	-1238.648315429688	977.3981323242186	-24.65967750549309	-1277.206176757812	1001.162170410156	49.11037826538094	-1228.800048828125	828.1893920898436	27.62900352478035	-1287.3212890625	833.6905517578124	65.24272155761727	-1260.610473632812	775.3348388671874	79.74578094482429	-1220.118408203125	774.3898315429686	42.57448196411141	-1132.984497070312	998.3192749023436	-362.9256591796874	-1140.128540039062	997.9016113281249	-130.8516693115234	-1238.382934570312	1017.546325683594	-75.08502960205071	-1242.366821289062	1038.076538085938	-76.64917755126946	-1339.338745117188	1027.48583984375	-189.136260986328	-1342.849609375	1025.638916015625	-242.2533721923827	-1335.767700195312	1030.757202148438	-291.6665954589843	-1219.375854492188	1048.78076171875	-412.5452270507812	-1208.315063476562	999.1906127929686	-416.8541259765624	-1219.89501953125	956.6913452148436	-434.5745849609374	-1147.67822265625	653.8983154296874	-388.7397766113281	-1214.9716796875	645.8433837890624	-387.8745117187499	-1203.576538085938	552.6345214843749	-360.8777770996093	-1133.08544921875	565.5883178710936	-355.4220886230468	-1106.073486328125	559.7871704101561	-287.6061706542968	-1141.524291992188	631.3052978515624	-228.5548248291015	-1270.245483398438	604.5266113281249	-309.2908325195312	-1152.291748046875	496.5379943847656	-328.5354003906249	-1167.05712890625	499.3336791992187	-224.7127532958984	-1171.52294921875	351.3648071289062	-339.6219787597656	-1242.408569335938	364.3661193847656	-357.4151916503906	-1257.42236328125	292.9864807128906	-344.9140319824218	-1185.943603515625	278.0962524414062	-334.0244140624999	-1192.892578125	317.7036743164062	-223.1530303955077	-1230.847900390625	82.61352539062493	-300.6009216308593	-1259.798828125	86.13466644287102	-220.9365234374999	-1299.813354492188	65.84180450439445	-268.3827514648437	-1182.78466796875	50.7376518249511	-301.6845703124999	-1112.631713867188	40.4555587768554	-303.5460815429687	-1081.596069335938	55.78359222412103	-237.0709381103515	-1038.942993164062	50.46098327636712	-251.5124359130859	-1121.691650390625	48.83002471923821	-205.0975646972656	-1179.241088867188	49.05109405517571	-200.3822937011718	-1164.644897460938	99.18217468261712	-253.324966430664	-1199.65771484375	974.1519165039061	-64.03021240234368	-1049.8818359375	715.4940795898436	-55.24282073974603	-1121.311279296875	690.9817504882811	-39.2159233093261	-1084.303588867188	598.8300170898436	-53.41296386718744	-1019.547546386719	622.2576293945311	-66.71454620361322	-976.6157836914062	587.7518920898436	-128.7108306884765	-1031.716918945312	677.6503906249999	-191.8821105957031	-1169.948852539062	622.8160400390624	-128.2811126708984	-1027.212158203125	525.6622924804686	-75.70872497558588	-1000.145263671875	518.2406005859374	-175.2440338134765	-1101.799926757812	411.6924133300781	-67.97994232177727	-1152.294677734375	464.3203430175781	-75.29022979736321	-1206.706298828125	411.8295898437499	-82.21446228027337	-1156.11474609375	358.2579345703124	-77.53765869140618	-1100.833618164062	373.4725036621093	-171.6605377197265	-1323.151733398438	214.3578796386718	-129.6878204345702	-1282.422607421875	208.2839813232421	-207.5349578857421	-1371.543090820312	229.6459045410155	-188.2931518554687	-1301.1005859375	141.6447296142577	-115.1819992065429	-1272.928100585938	94.36476898193352	-92.8268966674804	-1218.645263671875	84.99742126464837	-149.3272857666015	-1180.364379882812	51.30920028686516	-135.6615295410155	-1233.319946289062	63.36521148681633	-191.9145355224609	-1270.001953125	132.6529998779296	-200.7159729003905	-1248.728271484375	173.4146270751952	-150.3880767822265	-1205.372436523438	1558.59130859375	-337.2447509765624	-1190.808959960938	1592.688720703125	-181.792984008789	-1145.24267578125	1587.575561523438	-264.4752502441406	
